<?xml version="1.0" encoding="UTF-8" standalone="no"?>
<!DOCTYPE svg PUBLIC "-//W3C//DTD SVG 1.1//EN"
 "http://www.w3.org/Graphics/SVG/1.1/DTD/svg11.dtd">
<!-- Generated by graphviz version 2.40.1 (20161225.0304)
 -->
<!-- Title: dependencies Pages: 1 -->
<svg width="2294pt" height="284pt"
 viewBox="0.00 0.00 2294.00 284.00" xmlns="http://www.w3.org/2000/svg" xmlns:xlink="http://www.w3.org/1999/xlink">
<g id="graph0" class="graph" transform="scale(1 1) rotate(0) translate(4 280)">
<title>dependencies</title>
<polygon fill="#ffffff" stroke="transparent" points="-4,4 -4,-280 2290,-280 2290,4 -4,4"/>
<text text-anchor="start" x="1122.0091" y="-42.4" font-family="sans-serif" font-weight="bold" font-size="14.00" fill="#000000">Legend</text>
<polygon fill="#ffffb3" stroke="transparent" points="909,-10 909,-30 929,-30 929,-10 909,-10"/>
<text text-anchor="start" x="932.629" y="-15.4" font-family="sans-serif" font-size="14.00" fill="#000000"> &#160;Declarations</text>
<polygon fill="#8dd3c7" stroke="transparent" points="1022,-10 1022,-30 1042,-30 1042,-10 1022,-10"/>
<text text-anchor="start" x="1045.7251" y="-15.4" font-family="sans-serif" font-size="14.00" fill="#000000"> &#160;Module</text>
<polygon fill="#80b1d3" stroke="transparent" points="1108,-10 1108,-30 1128,-30 1128,-10 1108,-10"/>
<text text-anchor="start" x="1131.7812" y="-15.4" font-family="sans-serif" font-size="14.00" fill="#000000"> &#160;Bootstrap</text>
<polygon fill="#fdb462" stroke="transparent" points="1205,-10 1205,-30 1225,-30 1225,-10 1205,-10"/>
<text text-anchor="start" x="1228.6732" y="-15.4" font-family="sans-serif" font-size="14.00" fill="#000000"> &#160;Providers</text>
<polygon fill="#fb8072" stroke="transparent" points="1301,-10 1301,-30 1321,-30 1321,-10 1301,-10"/>
<text text-anchor="start" x="1324.7258" y="-15.4" font-family="sans-serif" font-size="14.00" fill="#000000"> &#160;Exports</text>
<g id="clust1" class="cluster">
<title>cluster_AppModule</title>
<polygon fill="none" stroke="#000000" stroke-dasharray="1,5" points="8,-70 8,-268 2278,-268 2278,-70 8,-70"/>
</g>
<g id="clust2" class="cluster">
<title>cluster_AppModule_declarations</title>
<polygon fill="none" stroke="#000000" points="326,-78 326,-130 2270,-130 2270,-78 326,-78"/>
</g>
<g id="clust15" class="cluster">
<title>cluster_AppModule_imports</title>
<polygon fill="none" stroke="#000000" points="174,-78 174,-130 318,-130 318,-78 174,-78"/>
</g>
<g id="clust17" class="cluster">
<title>cluster_AppModule_bootstrap</title>
<polygon fill="none" stroke="#000000" points="1099,-208 1099,-260 1223,-260 1223,-208 1099,-208"/>
</g>
<g id="clust18" class="cluster">
<title>cluster_AppModule_providers</title>
<polygon fill="none" stroke="#000000" points="16,-78 16,-130 166,-130 166,-78 16,-78"/>
</g>
<!-- AdminDashboardComponent -->
<g id="node1" class="node">
<title>AdminDashboardComponent</title>
<polygon fill="#ffffb3" stroke="#000000" points="2262.3613,-122 2081.6387,-122 2081.6387,-86 2262.3613,-86 2262.3613,-122"/>
<text text-anchor="middle" x="2172" y="-99.8" font-family="Times,serif" font-size="14.00" fill="#000000">AdminDashboardComponent</text>
</g>
<!-- AppModule -->
<g id="node13" class="node">
<title>AppModule</title>
<polygon fill="#8dd3c7" stroke="#000000" points="1202.6571,-187 1199.6571,-191 1178.6571,-191 1175.6571,-187 1119.3429,-187 1119.3429,-151 1202.6571,-151 1202.6571,-187"/>
<text text-anchor="middle" x="1161" y="-164.8" font-family="Times,serif" font-size="14.00" fill="#000000">AppModule</text>
</g>
<!-- AdminDashboardComponent&#45;&gt;AppModule -->
<g id="edge1" class="edge">
<title>AdminDashboardComponent&#45;&gt;AppModule</title>
<path fill="none" stroke="#000000" d="M2172,-122.0908C2172,-145.1328 2172,-182 2172,-182 2172,-182 1212.8352,-182 1212.8352,-182"/>
<polygon fill="#000000" stroke="#000000" points="1212.8352,-178.5001 1202.8352,-182 1212.8352,-185.5001 1212.8352,-178.5001"/>
</g>
<!-- AppComponent -->
<g id="node2" class="node">
<title>AppComponent</title>
<polygon fill="#ffffb3" stroke="#000000" points="2063.9399,-122 1958.0601,-122 1958.0601,-86 2063.9399,-86 2063.9399,-122"/>
<text text-anchor="middle" x="2011" y="-99.8" font-family="Times,serif" font-size="14.00" fill="#000000">AppComponent</text>
</g>
<!-- AppComponent&#45;&gt;AppModule -->
<g id="edge2" class="edge">
<title>AppComponent&#45;&gt;AppModule</title>
<path fill="none" stroke="#000000" d="M2011,-122.0449C2011,-143.6623 2011,-177 2011,-177 2011,-177 1212.8617,-177 1212.8617,-177"/>
<polygon fill="#000000" stroke="#000000" points="1212.8617,-173.5001 1202.8617,-177 1212.8617,-180.5001 1212.8617,-173.5001"/>
</g>
<!-- CheckoutComponent -->
<g id="node3" class="node">
<title>CheckoutComponent</title>
<polygon fill="#ffffb3" stroke="#000000" points="1940.4888,-122 1805.5112,-122 1805.5112,-86 1940.4888,-86 1940.4888,-122"/>
<text text-anchor="middle" x="1873" y="-99.8" font-family="Times,serif" font-size="14.00" fill="#000000">CheckoutComponent</text>
</g>
<!-- CheckoutComponent&#45;&gt;AppModule -->
<g id="edge3" class="edge">
<title>CheckoutComponent&#45;&gt;AppModule</title>
<path fill="none" stroke="#000000" d="M1873,-122.2228C1873,-142.3652 1873,-172 1873,-172 1873,-172 1212.8807,-172 1212.8807,-172"/>
<polygon fill="#000000" stroke="#000000" points="1212.8807,-168.5001 1202.8807,-172 1212.8807,-175.5001 1212.8807,-168.5001"/>
</g>
<!-- CreateTestComponent -->
<g id="node4" class="node">
<title>CreateTestComponent</title>
<polygon fill="#ffffb3" stroke="#000000" points="1787.9664,-122 1646.0336,-122 1646.0336,-86 1787.9664,-86 1787.9664,-122"/>
<text text-anchor="middle" x="1717" y="-99.8" font-family="Times,serif" font-size="14.00" fill="#000000">CreateTestComponent</text>
</g>
<!-- CreateTestComponent&#45;&gt;AppModule -->
<g id="edge4" class="edge">
<title>CreateTestComponent&#45;&gt;AppModule</title>
<path fill="none" stroke="#000000" d="M1717,-122.2222C1717,-140.8285 1717,-167 1717,-167 1717,-167 1212.7904,-167 1212.7904,-167"/>
<polygon fill="#000000" stroke="#000000" points="1212.7904,-163.5001 1202.7904,-167 1212.7903,-170.5001 1212.7904,-163.5001"/>
</g>
<!-- CreateappointmentComponent -->
<g id="node5" class="node">
<title>CreateappointmentComponent</title>
<polygon fill="#ffffb3" stroke="#000000" points="1627.8557,-122 1440.1443,-122 1440.1443,-86 1627.8557,-86 1627.8557,-122"/>
<text text-anchor="middle" x="1534" y="-99.8" font-family="Times,serif" font-size="14.00" fill="#000000">CreateappointmentComponent</text>
</g>
<!-- CreateappointmentComponent&#45;&gt;AppModule -->
<g id="edge5" class="edge">
<title>CreateappointmentComponent&#45;&gt;AppModule</title>
<path fill="none" stroke="#000000" d="M1534,-122.0336C1534,-139.0597 1534,-162 1534,-162 1534,-162 1212.7021,-162 1212.7021,-162"/>
<polygon fill="#000000" stroke="#000000" points="1212.7021,-158.5001 1202.7021,-162 1212.7021,-165.5001 1212.7021,-158.5001"/>
</g>
<!-- HomeComponent -->
<g id="node6" class="node">
<title>HomeComponent</title>
<polygon fill="#ffffb3" stroke="#000000" points="1421.5451,-122 1306.4549,-122 1306.4549,-86 1421.5451,-86 1421.5451,-122"/>
<text text-anchor="middle" x="1364" y="-99.8" font-family="Times,serif" font-size="14.00" fill="#000000">HomeComponent</text>
</g>
<!-- HomeComponent&#45;&gt;AppModule -->
<g id="edge6" class="edge">
<title>HomeComponent&#45;&gt;AppModule</title>
<path fill="none" stroke="#000000" d="M1364,-122.2396C1364,-137.5706 1364,-157 1364,-157 1364,-157 1213.0617,-157 1213.0617,-157"/>
<polygon fill="#000000" stroke="#000000" points="1213.0618,-153.5001 1203.0617,-157 1213.0617,-160.5001 1213.0618,-153.5001"/>
</g>
<!-- LoginComponent -->
<g id="node7" class="node">
<title>LoginComponent</title>
<polygon fill="#ffffb3" stroke="#000000" points="1288.2758,-122 1173.7242,-122 1173.7242,-86 1288.2758,-86 1288.2758,-122"/>
<text text-anchor="middle" x="1231" y="-99.8" font-family="Times,serif" font-size="14.00" fill="#000000">LoginComponent</text>
</g>
<!-- LoginComponent&#45;&gt;AppModule -->
<g id="edge7" class="edge">
<title>LoginComponent&#45;&gt;AppModule</title>
<path fill="none" stroke="#000000" d="M1188.2202,-122.1061C1188.2202,-122.1061 1188.2202,-140.991 1188.2202,-140.991"/>
<polygon fill="#000000" stroke="#000000" points="1184.7203,-140.9909 1188.2202,-150.991 1191.7203,-140.991 1184.7203,-140.9909"/>
</g>
<!-- RegisterComponent -->
<g id="node8" class="node">
<title>RegisterComponent</title>
<polygon fill="#ffffb3" stroke="#000000" points="1155.9846,-122 1028.0154,-122 1028.0154,-86 1155.9846,-86 1155.9846,-122"/>
<text text-anchor="middle" x="1092" y="-99.8" font-family="Times,serif" font-size="14.00" fill="#000000">RegisterComponent</text>
</g>
<!-- RegisterComponent&#45;&gt;AppModule -->
<g id="edge8" class="edge">
<title>RegisterComponent&#45;&gt;AppModule</title>
<path fill="none" stroke="#000000" d="M1137.5821,-122.1061C1137.5821,-122.1061 1137.5821,-140.991 1137.5821,-140.991"/>
<polygon fill="#000000" stroke="#000000" points="1134.0821,-140.9909 1137.5821,-150.991 1141.0821,-140.991 1134.0821,-140.9909"/>
</g>
<!-- UserDashboardComponent -->
<g id="node9" class="node">
<title>UserDashboardComponent</title>
<polygon fill="#ffffb3" stroke="#000000" points="1010.4003,-122 841.5997,-122 841.5997,-86 1010.4003,-86 1010.4003,-122"/>
<text text-anchor="middle" x="926" y="-99.8" font-family="Times,serif" font-size="14.00" fill="#000000">UserDashboardComponent</text>
</g>
<!-- UserDashboardComponent&#45;&gt;AppModule -->
<g id="edge9" class="edge">
<title>UserDashboardComponent&#45;&gt;AppModule</title>
<path fill="none" stroke="#000000" d="M926,-122.2396C926,-137.5706 926,-157 926,-157 926,-157 1109.2575,-157 1109.2575,-157"/>
<polygon fill="#000000" stroke="#000000" points="1109.2575,-160.5001 1119.2575,-157 1109.2575,-153.5001 1109.2575,-160.5001"/>
</g>
<!-- ViewappadminComponent -->
<g id="node10" class="node">
<title>ViewappadminComponent</title>
<polygon fill="#ffffb3" stroke="#000000" points="823.3613,-122 656.6387,-122 656.6387,-86 823.3613,-86 823.3613,-122"/>
<text text-anchor="middle" x="740" y="-99.8" font-family="Times,serif" font-size="14.00" fill="#000000">ViewappadminComponent</text>
</g>
<!-- ViewappadminComponent&#45;&gt;AppModule -->
<g id="edge10" class="edge">
<title>ViewappadminComponent&#45;&gt;AppModule</title>
<path fill="none" stroke="#000000" d="M740,-122.0336C740,-139.0597 740,-162 740,-162 740,-162 1109.0938,-162 1109.0938,-162"/>
<polygon fill="#000000" stroke="#000000" points="1109.0938,-165.5001 1119.0938,-162 1109.0937,-158.5001 1109.0938,-165.5001"/>
</g>
<!-- ViewappuserComponent -->
<g id="node11" class="node">
<title>ViewappuserComponent</title>
<polygon fill="#ffffb3" stroke="#000000" points="638.6853,-122 483.3147,-122 483.3147,-86 638.6853,-86 638.6853,-122"/>
<text text-anchor="middle" x="561" y="-99.8" font-family="Times,serif" font-size="14.00" fill="#000000">ViewappuserComponent</text>
</g>
<!-- ViewappuserComponent&#45;&gt;AppModule -->
<g id="edge11" class="edge">
<title>ViewappuserComponent&#45;&gt;AppModule</title>
<path fill="none" stroke="#000000" d="M561,-122.2222C561,-140.8285 561,-167 561,-167 561,-167 1109.2855,-167 1109.2855,-167"/>
<polygon fill="#000000" stroke="#000000" points="1109.2856,-170.5001 1119.2855,-167 1109.2855,-163.5001 1109.2856,-170.5001"/>
</g>
<!-- ViewtestComponent -->
<g id="node12" class="node">
<title>ViewtestComponent</title>
<polygon fill="#ffffb3" stroke="#000000" points="465.5912,-122 334.4088,-122 334.4088,-86 465.5912,-86 465.5912,-122"/>
<text text-anchor="middle" x="400" y="-99.8" font-family="Times,serif" font-size="14.00" fill="#000000">ViewtestComponent</text>
</g>
<!-- ViewtestComponent&#45;&gt;AppModule -->
<g id="edge12" class="edge">
<title>ViewtestComponent&#45;&gt;AppModule</title>
<path fill="none" stroke="#000000" d="M400,-122.2228C400,-142.3652 400,-172 400,-172 400,-172 1109.2735,-172 1109.2735,-172"/>
<polygon fill="#000000" stroke="#000000" points="1109.2736,-175.5001 1119.2735,-172 1109.2735,-168.5001 1109.2736,-175.5001"/>
</g>
<!-- AppComponent  -->
<g id="node15" class="node">
<title>AppComponent </title>
<polygon fill="#80b1d3" stroke="#000000" points="1215.439,-252 1106.561,-252 1106.561,-216 1215.439,-216 1215.439,-252"/>
<text text-anchor="middle" x="1161" y="-229.8" font-family="Times,serif" font-size="14.00" fill="#000000">AppComponent </text>
</g>
<!-- AppModule&#45;&gt;AppComponent  -->
<g id="edge14" class="edge">
<title>AppModule&#45;&gt;AppComponent </title>
<path fill="none" stroke="#000000" stroke-dasharray="1,5" d="M1161,-187.1061C1161,-187.1061 1161,-205.991 1161,-205.991"/>
<polygon fill="#000000" stroke="#000000" points="1157.5001,-205.9909 1161,-215.991 1164.5001,-205.991 1157.5001,-205.9909"/>
</g>
<!-- AppRoutingModule -->
<g id="node14" class="node">
<title>AppRoutingModule</title>
<polygon fill="#8dd3c7" stroke="#000000" points="310.2744,-122 307.2744,-126 286.2744,-126 283.2744,-122 181.7256,-122 181.7256,-86 310.2744,-86 310.2744,-122"/>
<text text-anchor="middle" x="246" y="-99.8" font-family="Times,serif" font-size="14.00" fill="#000000">AppRoutingModule</text>
</g>
<!-- AppRoutingModule&#45;&gt;AppModule -->
<g id="edge13" class="edge">
<title>AppRoutingModule&#45;&gt;AppModule</title>
<path fill="none" stroke="#000000" d="M246,-122.0449C246,-143.6623 246,-177 246,-177 246,-177 1109.3067,-177 1109.3067,-177"/>
<polygon fill="#000000" stroke="#000000" points="1109.3067,-180.5001 1119.3067,-177 1109.3067,-173.5001 1109.3067,-180.5001"/>
</g>
<!-- JwtInterceptor -->
<g id="node16" class="node">
<title>JwtInterceptor</title>
<ellipse fill="#fdb462" stroke="#000000" cx="91" cy="-104" rx="66.6094" ry="18"/>
<text text-anchor="middle" x="91" y="-99.8" font-family="Times,serif" font-size="14.00" fill="#000000">JwtInterceptor</text>
</g>
<!-- JwtInterceptor&#45;&gt;AppModule -->
<g id="edge15" class="edge">
<title>JwtInterceptor&#45;&gt;AppModule</title>
<path fill="none" stroke="#000000" d="M91,-122.0908C91,-145.1328 91,-182 91,-182 91,-182 1109.0547,-182 1109.0547,-182"/>
<polygon fill="#000000" stroke="#000000" points="1109.0548,-185.5001 1119.0547,-182 1109.0547,-178.5001 1109.0548,-185.5001"/>
</g>
</g>
</svg>
